<?xml version="1.0" encoding="UTF-8"?>
<svg id="Ebene_1" xmlns="http://www.w3.org/2000/svg" version="1.1" viewBox="0 0 1000 538.6">
  <!-- Generator: Adobe Illustrator 30.2.0, SVG Export Plug-In . SVG Version: 2.1.1 Build 105)  -->
  <defs>
    <style>
      .st0 {
        fill: #ffc100;
      }

      .st1 {
        fill: #ed1c24;
      }

      .st2 {
        fill: #394d55;
      }

      .st3 {
        fill: #9ac3ce;
      }

      .st4 {
        fill: #8ca930;
      }
    </style>
  </defs>
  <g>
    <path class="st2" d="M401.4,482.5v3.8c-1.1.5-2.5.7-4.1.7-4.2,0-6.7-2.4-6.7-6.7v-12.3h-4.1v-3.7h4.2v-6.6l3.7-2.2h.7v8.8h6.4v3.7h-6.4v11c0,3,.8,4,3.2,4s1.7-.2,2.6-.7l.4.2Z"/>
    <path class="st2" d="M408.1,475.1c0-6.6,5.1-11.8,12-11.8s12,5.1,12,11.8-5.2,11.8-12,11.8-12-5.2-12-11.8ZM427.5,475.1c0-4.3-3.2-7.8-7.4-7.8s-7.4,3.4-7.4,7.8,3.2,7.8,7.4,7.8,7.4-3.4,7.4-7.8Z"/>
    <path class="st2" d="M441.6,496.7v-32.4h4.4v3.8c1.9-3,4.8-4.7,8.2-4.7,5.9,0,10,4.6,10,11.6s-4.3,12-10.3,12-6.2-1.7-7.9-4.4v14.2h-4.4ZM459.6,475c0-4.8-2.4-7.7-6.6-7.7s-7.1,3.3-7.1,7.8,2.8,7.8,7,7.8,6.7-3,6.7-7.9Z"/>
    <path class="st2" d="M472.2,475.1c0-6.6,5.1-11.8,12-11.8s12,5.1,12,11.8-5.2,11.8-12,11.8-12-5.2-12-11.8ZM491.7,475.1c0-4.3-3.2-7.8-7.4-7.8s-7.4,3.4-7.4,7.8,3.2,7.8,7.4,7.8,7.4-3.4,7.4-7.8Z"/>
    <path class="st2" d="M505.7,486v-35.8h4.4v35.8h-4.4Z"/>
    <path class="st2" d="M519.5,475.1c0-6.6,5.1-11.8,12-11.8s12,5.1,12,11.8-5.2,11.8-12,11.8-12-5.2-12-11.8ZM538.9,475.1c0-4.3-3.2-7.8-7.4-7.8s-7.4,3.4-7.4,7.8,3.2,7.8,7.4,7.8,7.4-3.4,7.4-7.8Z"/>
    <path class="st2" d="M549.7,490.2c0-2.4,1.9-4.4,5-5.4-1.3-.7-2-1.7-2-2.9,0-1.8,1.2-2.9,3.9-3.6-3.2-1.1-5.2-3.9-5.2-7.1s4.1-7.9,9.6-7.9,3.3.3,4.6.9h6.9v3.2c0,0-.3.4-.3.4l-2.8-.3c.7,1.1,1.2,2.4,1.2,3.9,0,4.1-2.9,6.9-7.9,7.4-4.2.5-5.7,1.1-5.7,2.2s1.3,1.3,5.3,1.9c7.1.9,10.2,3,10.2,7s-4.2,7.3-11.3,7.3-11.5-2.6-11.5-7.1ZM568.1,490c0-2.1-2.4-3.1-6.7-3.6-.7,0-1.5-.1-2.1-.2-3.2.6-5,1.9-5,3.7s2.8,3.8,7.1,3.8,6.8-1.3,6.8-3.7ZM566.4,471.3c0-2.7-2.1-4.4-5.4-4.4s-5.3,1.7-5.3,4.4,2.1,4.4,5.3,4.4,5.4-1.8,5.4-4.4Z"/>
    <path class="st2" d="M582.1,496.7l6.1-12.7-8.8-19.7h5.1l6,15.2h0l6.3-15.2h5l-14.8,32.4h-4.9Z"/>
    <path class="st2" d="M627.5,475.1c0-6.6,5.1-11.8,12-11.8s12,5.1,12,11.8-5.2,11.8-12,11.8-12-5.2-12-11.8ZM646.9,475.1c0-4.3-3.2-7.8-7.4-7.8s-7.4,3.4-7.4,7.8,3.2,7.8,7.4,7.8,7.4-3.4,7.4-7.8Z"/>
    <path class="st2" d="M661,496.7v-32.4h4.4v3.8c1.9-3,4.8-4.7,8.2-4.7,5.9,0,10,4.6,10,11.6s-4.3,12-10.3,12-6.2-1.7-7.9-4.4v14.2h-4.4ZM679,475c0-4.8-2.4-7.7-6.6-7.7s-7.1,3.3-7.1,7.8,2.8,7.8,7,7.8,6.7-3,6.7-7.9Z"/>
    <path class="st2" d="M705,482.5v3.8c-1.1.5-2.5.7-4.1.7-4.2,0-6.7-2.4-6.7-6.7v-12.3h-4.1v-3.7h4.2v-6.6l3.7-2.2h.7v8.8h6.4v3.7h-6.4v11c0,3,.8,4,3.2,4s1.7-.2,2.6-.7l.4.2Z"/>
    <path class="st2" d="M712.8,454.2c0-1.7,1.3-3,3.1-3s3.1,1.4,3.1,3.1-1.4,2.9-3.1,2.9-3.1-1.3-3.1-3ZM713.6,486v-21.7h4.4v21.7h-4.4Z"/>
    <path class="st2" d="M763.4,472v14.1h-4.4v-12.3c0-4.4-1.6-6.4-4.7-6.4s-5.9,3.4-5.9,8.2v10.5h-4.4v-12.3c0-4.4-1.6-6.4-4.7-6.4s-5.9,3.4-5.9,8.2v10.5h-4.4v-21.7h4.4v3.8c1.8-3,4.2-4.7,7.4-4.7s6.1,1.9,7,5.4c1.8-3.7,4.9-5.4,8-5.4,4.7,0,7.7,3.1,7.7,8.6Z"/>
    <path class="st2" d="M773.4,454.2c0-1.7,1.3-3,3.1-3s3.1,1.4,3.1,3.1-1.4,2.9-3.1,2.9-3.1-1.3-3.1-3ZM774.2,486v-21.7h4.4v21.7h-4.4Z"/>
    <path class="st2" d="M799.5,468.1h-12v-3.8h19.2v.5l-12.5,17.5h12.4v3.8h-19.6v-.5l12.5-17.5Z"/>
    <path class="st2" d="M818.2,475.9v.2c0,4.3,2.9,7,6.8,7s4.6-1.2,6.3-3.8h.4c0,0,3.3,1.8,3.3,1.8-2.1,3.8-5.7,5.8-10.1,5.8-6.8,0-11.3-4.8-11.3-11.8s4.6-11.8,11.1-11.8,10.7,4.3,10.7,11.7,0,.4,0,.8h-17ZM818.3,472.8h12.4c-.2-3.6-2.6-5.8-6.1-5.8s-5.8,2.1-6.3,5.8Z"/>
    <path class="st2" d="M844.8,486v-21.7h4.1v4.2c1.9-3.7,4.2-5.2,7-5.2s3.9,1.2,4.7,3.7l-3.7,2.1h-.4c-.5-1.4-1.2-1.8-2.3-1.8-2.4,0-4.8,3.1-4.8,8.5v10.1h-4.4Z"/>
  </g>
  <g>
    <path class="st2" d="M390.9,254.1h-53.1v-23.9h132.5v23.9h-53.1v135.9h-26.4v-135.9Z"/>
    <path class="st2" d="M446.7,339.4c0-30.9,23.9-54.6,56.4-54.6s56.2,23.7,56.2,54.6-24.2,54.9-56.2,54.9-56.4-23.9-56.4-54.9ZM534.5,339.4c0-18.5-13.3-33-31.4-33s-31.4,14.4-31.4,33,13.5,33.2,31.4,33.2,31.4-14.4,31.4-33.2Z"/>
    <path class="st2" d="M574.8,310c0-47.9,35.7-84.2,86-84.2s85.8,36.3,85.8,84.2-36.1,84.2-85.8,84.2-86-36.6-86-84.2ZM719.1,310c0-34.1-24.2-59.8-58.2-59.8s-58.5,25.7-58.5,59.8,24.4,59.6,58.5,59.6,58.2-26,58.2-59.6Z"/>
    <path class="st2" d="M770.5,439.2v-150.1h24.2v17.2c8.8-13.8,22.3-21.4,37.7-21.4,26.6,0,45.4,21,45.4,54s-19.9,55.5-47,55.5-28.2-7.4-36.1-20.3c.2,9.9.5,21.4.5,32.3v33h-24.6ZM852.7,338.9c0-20.5-10.6-32.7-28-32.7s-30.3,14-30.3,33.4,12,33.2,29.8,33.2,28.4-12.9,28.4-33.9Z"/>
  </g>
  <circle class="st1" cx="167" cy="241.1" r="25"/>
  <circle class="st0" cx="267.5" cy="341.6" r="25"/>
  <path class="st4" d="M267.5,206.1c-19.3,0-35,15.7-35,35s2,13.4,5.5,18.9l-76.3,76.3,10.6,10.6,76.3-76.3c5.4,3.5,11.9,5.5,18.9,5.5,19.3,0,35-15.7,35-35s-15.7-35-35-35Z"/>
  <path class="st3" d="M202,341.6c0-19.3-15.7-35-35-35s-35,15.7-35,35,11.8,30.8,27.5,34.2v86.4h15v-86.4c15.7-3.4,27.5-17.4,27.5-34.2Z"/>
  <circle class="st0" cx="167" cy="462.2" r="25"/>
</svg>
